<?xml version="1.0" encoding="UTF-8" standalone="no"?>
<!-- Created with Inkscape (http://www.inkscape.org/) -->

<svg
   xmlns:dc="http://purl.org/dc/elements/1.1/"
   xmlns:cc="http://creativecommons.org/ns#"
   xmlns:rdf="http://www.w3.org/1999/02/22-rdf-syntax-ns#"
   xmlns:svg="http://www.w3.org/2000/svg"
   xmlns="http://www.w3.org/2000/svg"
   xmlns:sodipodi="http://sodipodi.sourceforge.net/DTD/sodipodi-0.dtd"
   xmlns:inkscape="http://www.inkscape.org/namespaces/inkscape"
   width="706.31793"
   height="548.54633"
   id="svg2"
   version="1.1"
   inkscape:version="0.48.4 r9939"
   sodipodi:docname="Google_Glass.svg">
  <defs
     id="defs4" />
  <sodipodi:namedview
     id="base"
     pagecolor="#00BCD4"
     bordercolor="#666666"
     borderopacity="1.0"
     inkscape:pageopacity="0.0"
     inkscape:pageshadow="2"
     inkscape:zoom="0.98994949"
     inkscape:cx="325.00175"
     inkscape:cy="278.99572"
     inkscape:document-units="px"
     inkscape:current-layer="layer1"
     showgrid="false"
     inkscape:window-width="1920"
     inkscape:window-height="1017"
     inkscape:window-x="-8"
     inkscape:window-y="-8"
     inkscape:window-maximized="1"
     fit-margin-left="10"
     fit-margin-right="10"
     fit-margin-top="10"
     fit-margin-bottom="10" />
  <metadata
     id="metadata7">
    <rdf:RDF>
      <cc:Work
         rdf:about="">
        <dc:format>image/svg+xml</dc:format>
        <dc:type
           rdf:resource="http://purl.org/dc/dcmitype/StillImage" />
        <dc:title />
      </cc:Work>
    </rdf:RDF>
  </metadata>
  <g
     inkscape:label="Ebene 1"
     inkscape:groupmode="layer"
     id="layer1"
     transform="translate(-9.8988647,-37.881161)">
    <path
       style="fill:#666666;stroke:#000000;stroke-width:1px;stroke-linecap:butt;stroke-linejoin:miter;stroke-opacity:1"
       d="m 649.78062,255.09929 c -6.96429,3.75 -260.36681,45.45687 -260.36681,45.45687 -5.05077,0.88387 -5.42957,-8.96511 -1.38896,-9.59646 13.76086,-1.8118 206.79658,-32.88323 206.79658,-32.88323 20.35714,-3.57143 55.71428,-15.71429 55.71428,-15.71429 3.75,-1.25 3.21429,-5.17857 3.21429,-5.17857 4.375,1.78571 7.23214,3.30357 7.23214,3.30357 3.75,2.32143 2.58929,4.82143 2.58929,4.82143 -1.25,2.67857 -5.98214,5.89286 -5.98214,5.89286 -5.35715,2.67857 -7.80867,3.89782 -7.80867,3.89782 z"
       id="path2997"
       inkscape:connector-curvature="0"
       sodipodi:nodetypes="cccccc" />
    <path
       style="fill:#cccccc;stroke:#000000;stroke-width:1px;stroke-linecap:butt;stroke-linejoin:miter;stroke-opacity:1"
       d="m 508.39286,215.75504 c 17.58929,1.42857 42.94643,3.39285 48.45373,3.91494 26.76904,3.26767 81.76778,12.61652 87.88328,14.34237 14.586,4.1163 19.06262,8.11985 19.06662,10.4172 0.006,3.31705 -10.6066,9.849 -15.97303,11.30109 l 11.23794,-3.21987 c 7.51301,-2.33598 8.01809,-8.52316 8.01809,-8.52316 C 665.625,233.96932 636.875,228.70147 636.875,228.70147 l -29.46429,-5.35715 c -7.58928,-1.60714 -32.23214,-5.26785 -32.23214,-5.26785 -12.05357,-1.42857 -12.41071,-1.33929 -12.41071,-1.33929 -9.01786,-1.07143 -54.28572,-4.01786 -54.28572,-4.01786 -0.17857,1.07143 -0.0893,3.03572 -0.0893,3.03572 z"
       id="path2995"
       inkscape:connector-curvature="0"
       sodipodi:nodetypes="cssccccc" />
    <path
       style="fill:#0000ff;fill-opacity:0.09615383;stroke:none"
       d="m 557.19383,216.01375 -9.47018,3.66181 -52.59106,-2.65165 13.0393,-4.03011 z"
       id="path2991-1"
       inkscape:connector-curvature="0"
       sodipodi:nodetypes="ccc" />
    <path
       style="fill:#3bb9ff;fill-opacity:1;stroke:#000000;stroke-width:1px;stroke-linecap:butt;stroke-linejoin:miter;stroke-opacity:1"
       d="m 190.26785,232.71933 c -18.03571,2.85714 -71.51785,30.53571 -71.51785,30.53571 -11.60714,5.89286 -9.46429,15.53571 -9.46429,15.53571 l 3.57143,49.82143 c 0.13618,4.57879 3.33963,2.02742 3.75,1.96429 l 25.71429,-13.39286 c 13.75,-6.42857 18.03571,-24.10714 18.03571,-24.10714 l 11.78572,-30.71429 c 4.82143,-16.07143 20.35714,-18.75 20.35714,-18.75 l 21.42857,-4.10714 z"
       id="path2999"
       inkscape:connector-curvature="0"
       sodipodi:nodetypes="ccccccccccc" />
    <path
       style="fill:#989898;fill-opacity:1;stroke:#000000;stroke-width:1px;stroke-linecap:butt;stroke-linejoin:miter;stroke-opacity:1"
       d="m 230.89286,236.46933 -36.42857,6.25 c -6.42858,1.25 -7.67857,-10.71429 -1.07143,-12.14286 2.03236,-0.86507 114.28572,-24.64286 124.82143,-25.53572 29.53557,-5.44048 55.53571,-5.89285 55.53571,-5.89285 27.5,-2.85714 170.17857,2.67856 209.82143,10.89285 C 608.75,212.71933 665,226.11219 666.60714,231.6479 l 0.53572,12.67857 c -0.35715,-9.82143 -30.35715,-15.71429 -30.35715,-15.71429 0,0 -62.09055,-11.0281 -79.46428,-12.14285 -49.28572,-3.75 -49.10714,-3.75 -49.10714,-3.75"
       id="path2993"
       inkscape:connector-curvature="0"
       sodipodi:nodetypes="ccccccccccc" />
    <path
       style="fill:#3bb9ff;fill-opacity:1;stroke:#000000;stroke-width:1px;stroke-linecap:butt;stroke-linejoin:miter;stroke-opacity:1"
       d="m 508.21429,207.71932 0,38.39286 c -18.75,-1.96428 -104.28572,-1.25 -111.07143,1.60714 -7.32143,0.17857 -162.5,22.85715 -162.5,22.85715 -7.5,1.60714 -9.28571,-33.57144 -2.67857,-35.35715 0,0 151.78572,-27.85714 164.82143,-27.14285 8.03571,-6.07143 105.89286,-4.46429 111.42857,-0.35715 z"
       id="path3772"
       inkscape:connector-curvature="0"
       sodipodi:nodetypes="ccccccc" />
    <path
       sodipodi:type="arc"
       style="fill:#333333;fill-opacity:0.81153846;stroke:#000000;stroke-width:1;stroke-miterlimit:4;stroke-dasharray:none;stroke-dashoffset:0"
       id="path2996"
       sodipodi:cx="461.32404"
       sodipodi:cy="223.75299"
       sodipodi:rx="11.427351"
       sodipodi:ry="11.458918"
       d="m 472.75139,223.75299 c 0,6.32859 -5.1162,11.45892 -11.42735,11.45892 -6.31116,0 -11.42736,-5.13033 -11.42736,-11.45892 0,-6.32858 5.1162,-11.45892 11.42736,-11.45892 6.31115,0 11.42735,5.13034 11.42735,11.45892 z" />
    <path
       sodipodi:type="arc"
       style="fill:#808080;stroke:#000000;stroke-width:1;stroke-miterlimit:4;stroke-dasharray:none;stroke-dashoffset:0"
       id="path3766"
       sodipodi:cx="458.13574"
       sodipodi:cy="224.16336"
       sodipodi:rx="8.8072672"
       sodipodi:ry="7.323606"
       d="m 466.94301,224.16336 c 0,4.04472 -3.94315,7.32361 -8.80727,7.32361 -4.86412,0 -8.80727,-3.27889 -8.80727,-7.32361 0,-4.04472 3.94315,-7.32361 8.80727,-7.32361 4.86412,0 8.80727,3.27889 8.80727,7.32361 z"
       transform="matrix(0.97192265,0,0,1.2808898,13.305184,-62.617944)" />
    <path
       sodipodi:type="arc"
       style="fill:#333333;stroke:#000000;stroke-width:1;stroke-miterlimit:4;stroke-dasharray:none;stroke-dashoffset:0"
       id="path3768"
       sodipodi:cx="453.5585"
       sodipodi:cy="223.87926"
       sodipodi:rx="5.9977808"
       sodipodi:ry="4.3878503"
       d="m 459.55628,223.87926 c 0,2.42334 -2.68529,4.38785 -5.99778,4.38785 -3.31248,0 -5.99778,-1.96451 -5.99778,-4.38785 0,-2.42335 2.6853,-4.38785 5.99778,-4.38785 3.31249,0 5.99778,1.9645 5.99778,4.38785 z"
       transform="matrix(0.78884375,0,0,1.2869087,97.034402,-64.169775)" />
    <path
       sodipodi:type="arc"
       style="fill:#000000;stroke:#000000;stroke-width:1;stroke-miterlimit:4;stroke-dasharray:none;stroke-dashoffset:0"
       id="path3770"
       sodipodi:cx="453.62164"
       sodipodi:cy="224.44746"
       sodipodi:rx="1.8309015"
       sodipodi:ry="2.0518723"
       d="m 455.45254,224.44746 c 0,1.13322 -0.81972,2.05188 -1.8309,2.05188 -1.01118,0 -1.8309,-0.91866 -1.8309,-2.05188 0,-1.13321 0.81972,-2.05187 1.8309,-2.05187 1.01118,0 1.8309,0.91866 1.8309,2.05187 z"
       transform="translate(-1.0101525,-0.82074894)" />
    <path
       style="fill:none;stroke:#000000;stroke-width:1px;stroke-linecap:butt;stroke-linejoin:miter;stroke-opacity:1"
       d="m 396.86368,208.00092 c -2.27284,5.3033 -2.14657,33.84011 0.37881,39.52222"
       id="path3774"
       inkscape:connector-curvature="0"
       sodipodi:nodetypes="cc" />
    <path
       style="fill:#00c4ff;fill-opacity:0.09615383;stroke:none"
       d="m 508.35927,211.28392 48.61359,3.78807 0.37881,33.4613 -48.86613,-3.03045 z"
       id="path3776"
       inkscape:connector-curvature="0" />
    <path
       style="fill:#008cff;fill-opacity:0.13461537;stroke:none"
       d="m 557.4148,248.59642 -9.47018,3.66181 -52.59106,-2.65165 13.0393,-4.03011 z"
       id="path2991"
       inkscape:connector-curvature="0"
       sodipodi:nodetypes="ccc" />
    <path
       style="fill:#0083cf;fill-opacity:1;stroke:#000000;stroke-width:1px;stroke-linecap:butt;stroke-linejoin:miter;stroke-opacity:1"
       d="m 114.54723,331.31149 15.2742,-0.0207 24.64286,-13.75 c 8.92857,-3.92857 11.25,-10.89285 11.25,-10.89285 5.89285,-18.39286 6.25,-20.89286 6.25,-20.89286 l 4.82142,-21.42857 c 1.25,-6.78572 6.78572,-13.21429 6.78572,-13.21429 4.82143,-5.17857 10.35714,-5.71428 10.35714,-5.71428 3.21429,-1.07143 35.89286,-7.67857 35.89286,-7.67857 l 0.55648,-1.1185 -36.68116,6.69226 c -13.63706,2.39911 -19.12976,13.44765 -19.12976,13.44765 -1.38896,2.84106 -8.64943,22.03396 -8.64943,22.03396 -4.67196,11.30108 -3.97748,10.73286 -5.42958,14.39467 -2.77791,9.97525 -8.52316,16.79379 -14.2684,21.97082 -4.48255,2.71478 -31.67235,16.17126 -31.67235,16.17126 z"
       id="path3001"
       inkscape:connector-curvature="0"
       sodipodi:nodetypes="cccccccccccccccc" />
    <path
       style="fill:#007aff;fill-opacity:0.1;stroke:none"
       d="m 549.77552,247.90195 -30.43084,2.77792 0,-32.32488 30.30458,-3.15672 z"
       id="path3846"
       inkscape:connector-curvature="0"
       sodipodi:nodetypes="ccccc" />
    <path
       style="fill:#0083cf;fill-opacity:1;stroke:#000000;stroke-width:1px;stroke-linecap:butt;stroke-linejoin:miter;stroke-opacity:1"
       d="m 397.26873,247.89659 c -7.32143,0.17857 -162.5988,23.02543 -162.5988,23.02543 l 16.50836,2.48971 160.7443,-21.05994 c 4.04061,-1.89403 66.18666,-0.72699 72.22591,0.3788 l 24.28079,-6.47199 c -18.83913,-1.93343 -104.37485,-1.21915 -111.16056,1.63799 z"
       id="path3772-1"
       inkscape:connector-curvature="0"
       sodipodi:nodetypes="ccccccc" />
    <text
       xml:space="preserve"
       style="font-size:50px;font-style:normal;font-variant:normal;font-weight:normal;font-stretch:normal;text-align:center;line-height:125%;letter-spacing:0px;word-spacing:0px;text-anchor:middle;fill:#000000;fill-opacity:1;stroke:none;font-family:DejaVu Sans;-inkscape-font-specification:DejaVu Sans"
       x="97.984802"
       y="183.12592"
       id="text3890"
       sodipodi:linespacing="125%"><tspan
         sodipodi:role="line"
         x="97.984802"
         y="183.12592"
         style="font-size:20px"
         id="tspan3896">Batterie</tspan><tspan
         sodipodi:role="line"
         x="97.984802"
         y="208.12592"
         style="font-size:20px"
         id="tspan3954">(Gegengewicht)</tspan></text>
    <path
       style="fill:none;stroke:#000000;stroke-width:1px;stroke-linecap:butt;stroke-linejoin:miter;stroke-opacity:1"
       d="m 95.459415,223.02694 42.426405,66.67007"
       id="path3894"
       inkscape:connector-curvature="0"
       sodipodi:nodetypes="cc" />
    <text
       xml:space="preserve"
       style="font-size:50px;font-style:normal;font-variant:normal;font-weight:normal;font-stretch:normal;text-align:center;line-height:125%;letter-spacing:0px;word-spacing:0px;text-anchor:middle;fill:#000000;fill-opacity:1;stroke:none;font-family:DejaVu Sans;-inkscape-font-specification:DejaVu Sans"
       x="130.69113"
       y="405.02771"
       id="text3900"
       sodipodi:linespacing="125%"><tspan
         sodipodi:role="line"
         id="tspan3902"
         x="130.69113"
         y="405.02771"
         style="font-size:20px">Knochenleitungs-</tspan><tspan
         sodipodi:role="line"
         x="130.69113"
         y="430.02771"
         style="font-size:20px"
         id="tspan3904">Lautsprecher</tspan><tspan
         sodipodi:role="line"
         x="130.69113"
         y="455.02771"
         style="font-size:20px"
         id="tspan3956">(Innenseite)</tspan></text>
    <path
       style="fill:none;stroke:#000000;stroke-width:1px;stroke-linecap:butt;stroke-linejoin:miter;stroke-opacity:1"
       d="m 160.06352,379.77391 15.66713,-97.2959"
       id="path3906"
       inkscape:connector-curvature="0"
       sodipodi:nodetypes="cc" />
    <path
       style="fill:none;stroke:#000000;stroke-width:1;stroke-linecap:butt;stroke-linejoin:miter;stroke-miterlimit:4;stroke-opacity:1;stroke-dasharray:1, 2;stroke-dashoffset:0"
       d="m 264.28571,232.71933 2.5,28.92857 99.28572,-15.71429 -2.5,-29.64286 z"
       id="path3908"
       inkscape:connector-curvature="0"
       sodipodi:nodetypes="ccccc" />
    <text
       xml:space="preserve"
       style="font-size:20px;font-style:normal;font-variant:normal;font-weight:normal;font-stretch:normal;text-align:center;line-height:125%;letter-spacing:0px;word-spacing:0px;text-anchor:middle;fill:#000000;fill-opacity:1;stroke:none;font-family:DejaVu Sans;-inkscape-font-specification:DejaVu Sans"
       x="285.35715"
       y="151.29076"
       id="text3910"
       sodipodi:linespacing="125%"><tspan
         sodipodi:role="line"
         x="285.35715"
         y="151.29076"
         id="tspan3914">Touchpad</tspan></text>
    <path
       style="fill:none;stroke:#000000;stroke-width:1px;stroke-linecap:butt;stroke-linejoin:miter;stroke-opacity:1"
       d="m 283.92857,156.6479 26.78572,83.57143"
       id="path3918"
       inkscape:connector-curvature="0" />
    <text
       xml:space="preserve"
       style="font-size:20px;font-style:normal;font-variant:normal;font-weight:normal;font-stretch:normal;text-align:center;line-height:125%;letter-spacing:0px;word-spacing:0px;text-anchor:middle;fill:#000000;fill-opacity:1;stroke:none;font-family:DejaVu Sans;-inkscape-font-specification:DejaVu Sans"
       x="642.45703"
       y="104.8391"
       id="text3920"
       sodipodi:linespacing="125%"><tspan
         sodipodi:role="line"
         x="642.45703"
         y="104.8391"
         id="tspan3978">Brillengestell</tspan><tspan
         sodipodi:role="line"
         x="642.45703"
         y="129.83911"
         id="tspan3982">(tauschbar)</tspan></text>
    <path
       style="fill:none;stroke:#000000;stroke-width:1px;stroke-linecap:butt;stroke-linejoin:miter;stroke-opacity:1"
       d="m 641.95194,140.69951 -27.77919,80.30713"
       id="path3924"
       inkscape:connector-curvature="0" />
    <text
       xml:space="preserve"
       style="font-size:20px;font-style:normal;font-variant:normal;font-weight:normal;font-stretch:normal;text-align:center;line-height:125%;letter-spacing:0px;word-spacing:0px;text-anchor:middle;fill:#000000;fill-opacity:1;stroke:none;font-family:DejaVu Sans;-inkscape-font-specification:DejaVu Sans"
       x="452.54834"
       y="134.13351"
       id="text3926"
       sodipodi:linespacing="125%"><tspan
         sodipodi:role="line"
         id="tspan3928"
         x="452.54834"
         y="134.13351">Kamera</tspan></text>
    <path
       style="fill:none;stroke:#000000;stroke-width:1px;stroke-linecap:butt;stroke-linejoin:miter;stroke-opacity:1"
       d="m 451.03311,142.21474 11.61676,82.32743"
       id="path3930"
       inkscape:connector-curvature="0" />
    <path
       style="fill:#000000;stroke:#000000;stroke-width:1px;stroke-linecap:butt;stroke-linejoin:miter;stroke-opacity:1"
       d="m 265.29131,268.23127 0.63135,1.89404 13.8896,-1.76777 -0.69449,-2.46225 z"
       id="path3932"
       inkscape:connector-curvature="0"
       sodipodi:nodetypes="ccccc" />
    <path
       style="fill:none;stroke:#000000;stroke-width:1px;stroke-linecap:butt;stroke-linejoin:miter;stroke-opacity:1"
       d="M 273.92857,267.36218 242.5,498.79075"
       id="path3934"
       inkscape:connector-curvature="0"
       sodipodi:nodetypes="cc" />
    <text
       xml:space="preserve"
       style="font-size:20px;font-style:normal;font-variant:normal;font-weight:normal;font-stretch:normal;text-align:center;line-height:125%;letter-spacing:0px;word-spacing:0px;text-anchor:middle;fill:#000000;fill-opacity:1;stroke:none;font-family:DejaVu Sans;-inkscape-font-specification:DejaVu Sans"
       x="242.85715"
       y="522.00507"
       id="text3936"
       sodipodi:linespacing="125%"><tspan
         sodipodi:role="line"
         id="tspan3938"
         x="242.85715"
         y="522.00507">USB-Anschluss</tspan></text>
    <path
       style="fill:none;stroke:#000000;stroke-width:1px;stroke-linecap:butt;stroke-linejoin:miter;stroke-opacity:1"
       d="m 533.86562,237.67416 71.72083,107.07617"
       id="path3940"
       inkscape:connector-curvature="0" />
    <text
       xml:space="preserve"
       style="font-size:20px;font-style:normal;font-variant:normal;font-weight:normal;font-stretch:normal;text-align:center;line-height:125%;letter-spacing:0px;word-spacing:0px;text-anchor:middle;fill:#000000;fill-opacity:1;stroke:none;font-family:DejaVu Sans;-inkscape-font-specification:DejaVu Sans"
       x="609.62701"
       y="366.97366"
       id="text3942"
       sodipodi:linespacing="125%"><tspan
         sodipodi:role="line"
         id="tspan3944"
         x="609.62701"
         y="366.97366">Prisma</tspan></text>
    <path
       style="fill:none;stroke:#000000;stroke-width:1px;stroke-linecap:butt;stroke-linejoin:miter;stroke-opacity:1"
       d="m 487.5,248.43361 57.85714,155.35714"
       id="path3946"
       inkscape:connector-curvature="0" />
    <text
       xml:space="preserve"
       style="font-size:20px;font-style:normal;font-variant:normal;font-weight:normal;font-stretch:normal;text-align:center;line-height:125%;letter-spacing:0px;word-spacing:0px;text-anchor:middle;fill:#000000;fill-opacity:1;stroke:none;font-family:DejaVu Sans;-inkscape-font-specification:DejaVu Sans"
       x="551.78571"
       y="425.93359"
       id="text3948"
       sodipodi:linespacing="125%"><tspan
         sodipodi:role="line"
         id="tspan3950"
         x="551.78571"
         y="425.93359">Projektor</tspan><tspan
         sodipodi:role="line"
         x="551.78571"
         y="450.93359"
         id="tspan3952">(intern)</tspan></text>
    <text
       xml:space="preserve"
       style="font-size:20px;font-style:normal;font-variant:normal;font-weight:normal;font-stretch:normal;text-align:center;line-height:125%;letter-spacing:0px;word-spacing:0px;text-anchor:middle;fill:#000000;fill-opacity:1;stroke:none;font-family:DejaVu Sans;-inkscape-font-specification:DejaVu Sans"
       x="361.42859"
       y="63.076473"
       id="text3958"
       sodipodi:linespacing="125%"><tspan
         sodipodi:role="line"
         id="tspan3960"
         x="361.42859"
         y="63.076473">verstellbarer</tspan><tspan
         sodipodi:role="line"
         x="361.42859"
         y="88.076477"
         id="tspan3962">Winkel</tspan></text>
    <path
       style="fill:none;stroke:#000000;stroke-width:1px;stroke-linecap:butt;stroke-linejoin:miter;stroke-opacity:1"
       d="M 368.57143,97.362183 396.42857,224.50504"
       id="path3964"
       inkscape:connector-curvature="0" />
    <path
       style="fill:none;stroke:#000000;stroke-width:1px;stroke-linecap:butt;stroke-linejoin:miter;stroke-opacity:1"
       d="M 330.71429,257.36218 446.42857,474.50504"
       id="path3966"
       inkscape:connector-curvature="0"
       sodipodi:nodetypes="cc" />
    <text
       xml:space="preserve"
       style="font-size:20px;font-style:normal;font-variant:normal;font-weight:normal;font-stretch:normal;text-align:center;line-height:125%;letter-spacing:0px;word-spacing:0px;text-anchor:middle;fill:#000000;fill-opacity:1;stroke:none;font-family:DejaVu Sans;-inkscape-font-specification:DejaVu Sans"
       x="457.85712"
       y="498.79074"
       id="text3968"
       sodipodi:linespacing="125%"><tspan
         sodipodi:role="line"
         id="tspan3970"
         x="457.85712"
         y="498.79074">Recheneinheit</tspan><tspan
         sodipodi:role="line"
         x="457.85712"
         y="523.79077"
         id="tspan3972">mit CPU, RAM,</tspan><tspan
         sodipodi:role="line"
         x="457.85712"
         y="548.79077"
         id="tspan3974">WLAN, BT, GPS, etc.</tspan><tspan
         sodipodi:role="line"
         x="457.85712"
         y="573.79077"
         id="tspan3976">(intern)</tspan></text>
  </g>
</svg>
